<svg version="1.1" xmlns="http://www.w3.org/2000/svg" width="314" height="100">
  <path d="M 66.806 18.435 C 71.15 18.443 73.359 20.365 76.931 22.747 C 80.205 21.986 82.122 20.62 84.931 18.747 C 88.37 18.068 91.494 18.05 94.931 18.747 C 98.842 21.373 101.44 24.274 102.931 28.747 C 103.637 33.866 103.414 36.686 100.306 40.872 C 94.059 48.212 86.98 56.381 78.931 61.747 C 74.319 61.251 71.723 58.03 68.619 54.872 C 67.756 54.003 67.756 54.003 66.876 53.117 C 60.086 46.099 53.482 38.19 53.58 28.075 C 54.183 24.08 55.97 22.439 58.931 19.747 C 61.519 18.498 63.899 18.669 66.806 18.435 Z" fill="#6070FF"/>
  <path d="M0 0 C-0.50952712 4.45836229 -2.19755401 6.58451895 -5 10 C-5.77833534 12.18214568 -5.77833534 12.18214568 -6 14 C-4.35 13.34 -2.7 12.68 -1 12 C-1 10.02 -1 8.04 -1 6 C-0.34 6 0.32 6 1 6 C1.33 5.01 1.66 4.02 2 3 C2.66 3 3.32 3 4 3 C4 3.99 4 4.98 4 6 C4.66 6 5.32 6 6 6 C6 6.66 6 7.32 6 8 C5.01 8 4.02 8 3 8 C3 9.98 3 11.96 3 14 C6.48094605 11.6793693 6.5962077 10.889061 7.625 7 C8.94936709 2.10126582 8.94936709 2.10126582 10 0 C10.66 0 11.32 0 12 0 C12 1.98 12 3.96 12 6 C14.475 6.495 14.475 6.495 17 7 C16.67 9.31 16.34 11.62 16 14 C17.65 13.34 19.3 12.68 21 12 C21.33 8.7 21.66 5.4 22 2 C20.68 2.33 19.36 2.66 18 3 C18.66 2.01 19.32 1.02 20 0 C20.886875 0.185625 21.77375 0.37125 22.6875 0.5625 C25.85178811 0.98042484 27.94839642 0.80777742 31 0 C31.99 1.485 31.99 1.485 33 3 C33.61875 2.79375 34.2375 2.5875 34.875 2.375 C35.926875 2.189375 35.926875 2.189375 37 2 C37.99 2.99 37.99 2.99 39 4 C38.9765625 6.3828125 38.9765625 6.3828125 38.625 9.125 C38.51414062 10.03507812 38.40328125 10.94515625 38.2890625 11.8828125 C38.19367188 12.58148438 38.09828125 13.28015625 38 14 C40.33333333 13.08333333 40.33333333 13.08333333 41.5 10 C43 7 43 7 45 6 C46.99960012 5.960008 49.00047242 5.95653201 51 6 C52.09658936 9.28976808 51.79953138 10.71303767 51 14 C51.99 13.34 52.98 12.68 54 12 C54.2502157 8.91634129 54.2502157 8.91634129 54 6 C54.66 6 55.32 6 56 6 C56.33 5.01 56.66 4.02 57 3 C57.66 3 58.32 3 59 3 C59 3.99 59 4.98 59 6 C59.66 6 60.32 6 61 6 C61 6.66 61 7.32 61 8 C60.01 8 59.02 8 58 8 C58 9.98 58 11.96 58 14 C60.59937954 11.53058944 62.79020692 8.81939117 65 6 C66.65 6.33 68.3 6.66 70 7 C69.67 8.32 69.34 9.64 69 11 C67.68 11.33 66.36 11.66 65 12 C65 12.66 65 13.32 65 14 C67.31 13.34 69.62 12.68 72 12 C72 12.99 72 13.98 72 15 C68.54337669 17.30441554 67.05142119 17.25860135 63 17 C62.34 16.67 61.68 16.34 61 16 C59.328451 16.30791692 57.66194453 16.64386903 56 17 C52 17 52 17 49.8125 16.4375 C49.214375 16.293125 48.61625 16.14875 48 16 C47.505 16.495 47.505 16.495 47 17 C45.33391013 17.04384447 43.66619446 17.0396713 42 17 C41.01 17 40.02 17 39 17 C37.68 17 36.36 17 35 17 C35 13.37 35 9.74 35 6 C31.88776687 10.14964417 31.47996422 12.00837213 31 17 C30.01 17 29.02 17 28 17 C28.96355353 7.58997722 28.96355353 7.58997722 30 3 C27.00352866 3.6737595 27.00352866 3.6737595 25.875 5.5625 C24.63507741 9.01657007 24.36508543 12.34914566 24 16 C22.68 16.33 21.36 16.66 20 17 C19.505 16.01 19.505 16.01 19 15 C18.34 15.66 17.68 16.32 17 17 C16.01 17 15.02 17 14 17 C14 14.03 14 11.06 14 8 C13.01 8.66 12.02 9.32 11 10 C10.26393501 13.56769552 10.26393501 13.56769552 10 17 C9.01 17 8.02 17 7 17 C7 16.34 7 15.68 7 15 C6.01 15.66 5.02 16.32 4 17 C2.32995171 16.68404492 0.66362417 16.34820041 -1 16 C-3.00212229 16.32033957 -5.00239695 16.65259077 -7 17 C-7.99 16.67 -8.98 16.34 -10 16 C-11.67542976 16.28604898 -13.34385343 16.61781233 -15 17 C-15.66 17 -16.32 17 -17 17 C-17.825 17.020625 -18.65 17.04125 -19.5 17.0625 C-22 17 -22 17 -24 16 C-25.155 16.185625 -26.31 16.37125 -27.5 16.5625 C-28.655 16.706875 -29.81 16.85125 -31 17 C-33 15 -33 15 -33.375 12.625 C-33 10 -33 10 -31.25 7.6875 C-29 6 -29 6 -25 6 C-25.33 7.65 -25.66 9.3 -26 11 C-27.32 11.33 -28.64 11.66 -30 12 C-30 12.66 -30 13.32 -30 14 C-27.0957107 13.89207179 -27.0957107 13.89207179 -24 13 C-22.19212694 10.62597583 -22.19212694 10.62597583 -21 8 C-19 6 -19 6 -15.375 5.875 C-13.704375 5.936875 -13.704375 5.936875 -12 6 C-12.33 8.64 -12.66 11.28 -13 14 C-9.34370915 11.56247277 -9.49303266 10.08196666 -8.58984375 5.9765625 C-7.14168452 1.1237905 -4.82756368 0 0 0 Z " fill="#4E3D87" transform="translate(186,48)"/>
  <path d="M0 0 C1.27688043 18.60597201 1.27688043 18.60597201 -5.00390625 25.9609375 C-5.66261719 26.63382813 -6.32132813 27.30671875 -7 28 C-7.87978516 28.97839844 -7.87978516 28.97839844 -8.77734375 29.9765625 C-11.56089608 32.94316023 -14.47841735 35.4237353 -17.8125 37.75 C-21.13023148 39.80548581 -21.13023148 39.80548581 -23 43 C-25.95064148 43.2208564 -28.68368231 43.28060989 -31.625 43.1875 C-32.42679687 43.17396484 -33.22859375 43.16042969 -34.0546875 43.14648438 C-36.03674378 43.11109051 -38.01845551 43.05728234 -40 43 C-40.77483444 31.39470199 -40.77483444 31.39470199 -38.125 26.625 C-34.91375878 23.57018028 -31.09798634 21.1367368 -27.40234375 18.7109375 C-24.9248555 17.06767632 -24.9248555 17.06767632 -22.94140625 14.7890625 C-21 13 -21 13 -17 13 C-17 14.98 -17 16.96 -17 19 C-14.93237625 19 -13.63616163 17.26106569 -12.26171875 15.8984375 C-10.03297704 12.54497475 -9.57847836 8.65475616 -8.87109375 4.7421875 C-8 2 -8 2 -6.16015625 0.0703125 C-3.54471067 -1.22558639 -2.70276724 -0.82155067 0 0 Z " fill="#6372FF" transform="translate(123,45)"/>
  <path d="M0 0 C4.7890625 0.8125 4.7890625 0.8125 6.6875 2.5 C7.97230401 4.94724574 8.27501108 6.50163462 8.6875 9.1875 C9.81696743 15.20466277 13.75877225 18.8278155 18 23 C17.66226563 22.39671875 17.32453125 21.7934375 16.9765625 21.171875 C15.73069874 18.40107401 16.20273583 16.87015101 17 14 C21.03715144 14.34604155 22.72765386 15.51074706 25.40625 18.47265625 C28.21081299 21.16036245 31.54352224 23.14444547 34.79296875 25.25390625 C37.11676187 27.0923762 38.0408176 28.22369982 39 31 C39.16015625 33 39.16015625 33 39.0625 35 C38.97651084 37.88601122 39.21766494 40.20594621 40 43 C37.64291204 45.35708796 31.70965165 44.49032348 28.43579102 44.52563477 C22.65149829 44.39346761 22.65149829 44.39346761 19.8203125 42.68359375 C18.4375 40.9375 18.4375 40.9375 17.2421875 38.9921875 C15.79637742 36.67343549 14.17206691 35.28995668 12.0625 33.5625 C7.55502152 29.7311433 2.67672572 25.35345144 0 20 C-0.08372659 18.47851674 -0.10730027 16.95344222 -0.09765625 15.4296875 C-0.09443359 14.53378906 -0.09121094 13.63789062 -0.08789062 12.71484375 C-0.07951172 11.77769531 -0.07113281 10.84054688 -0.0625 9.875 C-0.05798828 8.93011719 -0.05347656 7.98523437 -0.04882812 7.01171875 C-0.03702357 4.67441613 -0.02055759 2.33723939 0 0 Z " fill="#6272FF" transform="translate(41,44)"/>
  <path d="M0 0 C0.66 0 1.32 0 2 0 C2 0.99 2 1.98 2 3 C2.66 3 3.32 3 4 3 C4 3.66 4 4.32 4 5 C3.01 5 2.02 5 1 5 C1 6.98 1 8.96 1 11 C3.59937954 8.53058944 5.79020692 5.81939117 8 3 C10.475 3.495 10.475 3.495 13 4 C12.67 5.32 12.34 6.64 12 8 C10.68 8.33 9.36 8.66 8 9 C8 9.66 8 10.32 8 11 C10.31 10.34 12.62 9.68 15 9 C15 9.99 15 10.98 15 12 C11.54337669 14.30441554 10.05142119 14.25860135 6 14 C5.34 13.67 4.68 13.34 4 13 C2.328451 13.30791692 0.66194453 13.64386903 -1 14 C-5 14 -5 14 -7.1875 13.4375 C-7.785625 13.293125 -8.38375 13.14875 -9 13 C-9.33 13.33 -9.66 13.66 -10 14 C-11.66608987 14.04384447 -13.33380554 14.0396713 -15 14 C-15.99 14 -16.98 14 -18 14 C-19.32 14 -20.64 14 -22 14 C-22.31563182 8.73946963 -21.66590937 5.55426184 -19 1 C-18.67 1 -18.34 1 -18 1 C-18.33 4.3 -18.66 7.6 -19 11 C-16.66666667 10.08333333 -16.66666667 10.08333333 -15.5 7 C-14 4 -14 4 -12 3 C-10.00039988 2.960008 -7.99952758 2.95653201 -6 3 C-4.90341064 6.28976808 -5.20046862 7.71303767 -6 11 C-5.01 10.34 -4.02 9.68 -3 9 C-2.7497843 5.91634129 -2.7497843 5.91634129 -3 3 C-2.34 3 -1.68 3 -1 3 C-0.67 2.01 -0.34 1.02 0 0 Z " fill="#51468A" transform="translate(243,51)"/>
  <path d="M0 0 C-0.33 1.65 -0.66 3.3 -1 5 C-2.32 5.33 -3.64 5.66 -5 6 C-5 6.66 -5 7.32 -5 8 C-2.0957107 7.89207179 -2.0957107 7.89207179 1 7 C2.80787306 4.62597583 2.80787306 4.62597583 4 2 C6 0 6 0 8.625 -0.125 C9.40875 -0.08375 10.1925 -0.0425 11 0 C10.53199289 4.05606165 10.12046792 7.46588679 8 11 C3.25 11.125 3.25 11.125 1 10 C-0.7325 10.2784375 -0.7325 10.2784375 -2.5 10.5625 C-3.655 10.706875 -4.81 10.85125 -6 11 C-8 9 -8 9 -8.375 6.625 C-8 4 -8 4 -6.25 1.6875 C-4 0 -4 0 0 0 Z " fill="#513C80" transform="translate(161,54)"/>
  <path d="M0 0 C0.66 0 1.32 0 2 0 C1.34 5.61 0.68 11.22 0 17 C-1.32 16.67 -2.64 16.34 -4 16 C-4 14.02 -4 12.04 -4 10 C-5.32 10.33 -6.64 10.66 -8 11 C-8.33 12.98 -8.66 14.96 -9 17 C-9.99 17 -10.98 17 -12 17 C-13.35384615 9.73846154 -13.35384615 9.73846154 -11.5625 6 C-11.046875 5.34 -10.53125 4.68 -10 4 C-11.32 4 -12.64 4 -14 4 C-14 3.34 -14 2.68 -14 2 C-11.29120665 0.64560332 -8.99066732 0.93498549 -6 1 C-6.33 2.98 -6.66 4.96 -7 7 C-5.35 7 -3.7 7 -2 7 C-1.855625 6.030625 -1.71125 5.06125 -1.5625 4.0625 C-1 1 -1 1 0 0 Z " fill="#624781" transform="translate(151,48)"/>
  <path d="M0 0 C-0.50952712 4.45836229 -2.19755401 6.58451895 -5 10 C-5.77833534 12.18214568 -5.77833534 12.18214568 -6 14 C-4.68 14 -3.36 14 -2 14 C-2.33 14.99 -2.66 15.98 -3 17 C-4.051875 16.814375 -5.10375 16.62875 -6.1875 16.4375 C-9.57119882 16.04920669 -11.76425888 16.11752515 -15 17 C-15 16.34 -15 15.68 -15 15 C-15.66 14.67 -16.32 14.34 -17 14 C-16.01 11.36 -15.02 8.72 -14 6 C-13.34 6 -12.68 6 -12 6 C-12.33 8.64 -12.66 11.28 -13 14 C-9.34370915 11.56247277 -9.49303266 10.08196666 -8.58984375 5.9765625 C-7.14168452 1.1237905 -4.82756368 0 0 0 Z " fill="#533E83" transform="translate(186,48)"/>
  <path d="M0 0 C0.33 0 0.66 0 1 0 C0.67 3.3 0.34 6.6 0 10 C2.34381129 9.10603104 2.34381129 9.10603104 3.1875 6 C3.785625 5.01 4.38375 4.02 5 3 C8.6875 2.125 8.6875 2.125 12 2 C12.36108597 8.25882353 12.36108597 8.25882353 10.8125 11.4375 C9 13 9 13 6.5 13.25 C5.675 13.1675 4.85 13.085 4 13 C3.01 13 2.02 13 1 13 C-0.32 13 -1.64 13 -3 13 C-3.31563182 7.73946963 -2.66590937 4.55426184 0 0 Z " fill="#4F458E" transform="translate(224,52)"/>
  <path d="M0 0 C0.66 0 1.32 0 2 0 C2 0.99 2 1.98 2 3 C2.66 3 3.32 3 4 3 C4 3.66 4 4.32 4 5 C3.01 5 2.02 5 1 5 C0.938125 5.928125 0.87625 6.85625 0.8125 7.8125 C0 11 0 11 -2.375 12.875 C-5 14 -5 14 -8 14 C-8.33 13.01 -8.66 12.02 -9 11 C-8.67 10.34 -8.34 9.68 -8 9 C-7.9603287 7.33380554 -7.95615553 5.66608987 -8 4 C-7.01 4 -6.02 4 -5 4 C-5.33 6.31 -5.66 8.62 -6 11 C-5.01 10.34 -4.02 9.68 -3 9 C-2.7497843 5.91634129 -2.7497843 5.91634129 -3 3 C-2.34 3 -1.68 3 -1 3 C-0.67 2.01 -0.34 1.02 0 0 Z " fill="#473786" transform="translate(243,51)"/>
  <path d="M0 0 C0.66 0 1.32 0 2 0 C1.34 5.61 0.68 11.22 0 17 C-0.99 17 -1.98 17 -3 17 C-3 14.36 -3 11.72 -3 9 C-4.32 8.67 -5.64 8.34 -7 8 C-6.401875 7.979375 -5.80375 7.95875 -5.1875 7.9375 C-2.56685398 7.09543384 -2.56685398 7.09543384 -1.25 3.4375 C-0.8375 2.303125 -0.425 1.16875 0 0 Z " fill="#4F438C" transform="translate(151,48)"/>
  <path d="M0 0 C0.125 3.375 0.125 3.375 0 7 C-0.66 7.66 -1.32 8.32 -2 9 C-3.32 9 -4.64 9 -6 9 C-6 7.68 -6 6.36 -6 5 C-6.99 5.33 -7.98 5.66 -9 6 C-7.01260984 0.46369883 -5.82303895 -0.15323787 0 0 Z " fill="#68447C" transform="translate(236,54)"/>
  <path d="M0 0 C-0.4793247 4.31392226 -1.7457985 6.16569547 -5 9 C-5.66 6.69 -6.32 4.38 -7 2 C-4 0 -4 0 0 0 Z " fill="#8987AA" transform="translate(186,48)"/>
  <path d="M0 0 C2.625 0.375 2.625 0.375 5 1 C4.67 2.32 4.34 3.64 4 5 C1.36 5.66 -1.28 6.32 -4 7 C-2.92598892 4.08482708 -2.22189824 2.22189824 0 0 Z " fill="#68548F" transform="translate(251,54)"/>
  <path d="M0 0 C-0.33 1.65 -0.66 3.3 -1 5 C-2.32 5 -3.64 5 -5 5 C-6.77409808 6.92022703 -6.77409808 6.92022703 -8 9 C-8.36794764 5.68847126 -8.29809215 4.39390748 -6.25 1.6875 C-4 0 -4 0 0 0 Z " fill="#6B528C" transform="translate(161,54)"/>
  <path d="M0 0 C0.99 0.33 1.98 0.66 3 1 C2.67 3.64 2.34 6.28 2 9 C2.66 9.33 3.32 9.66 4 10 C2.68 10.33 1.36 10.66 0 11 C-0.19406478 9.35492782 -0.38007935 7.70890406 -0.5625 6.0625 C-0.66691406 5.14597656 -0.77132812 4.22945312 -0.87890625 3.28515625 C-0.91886719 2.53105469 -0.95882812 1.77695312 -1 1 C-0.67 0.67 -0.34 0.34 0 0 Z " fill="#443587" transform="translate(200,54)"/>
  <path d="M0 0 C0.66 0.33 1.32 0.66 2 1 C2.40729228 3.32156597 2.74438677 5.6568787 3 8 C1.68 8.33 0.36 8.66 -1 9 C-1.33 8.34 -1.66 7.68 -2 7 C-2.99 6.67 -3.98 6.34 -5 6 C-3.35 5.34 -1.7 4.68 0 4 C0 2.68 0 1.36 0 0 Z " fill="#624381" transform="translate(207,56)"/>
  <path d="M0 0 C0.66 0 1.32 0 2 0 C1.67 2.97 1.34 5.94 1 9 C1.66 9.33 2.32 9.66 3 10 C1.68 10.33 0.36 10.66 -1 11 C-1 10.34 -1 9.68 -1 9 C-1.66 8.67 -2.32 8.34 -3 8 C-2.01 5.36 -1.02 2.72 0 0 Z " fill="#483280" transform="translate(172,54)"/>
  <path d="M0 0 C-0.25 2.375 -0.25 2.375 -1 5 C-3.0625 6.3125 -3.0625 6.3125 -5 7 C-4.67 5.68 -4.34 4.36 -4 3 C-5.32 3 -6.64 3 -8 3 C-8 2.34 -8 1.68 -8 1 C-5.29120665 -0.35439668 -2.99066732 -0.06501451 0 0 Z " fill="#573D80" transform="translate(145,49)"/>
  <path d="M0 0 C0.66 0 1.32 0 2 0 C2 0.99 2 1.98 2 3 C2.66 3 3.32 3 4 3 C4 3.66 4 4.32 4 5 C3.01 5 2.02 5 1 5 C0.67 5.66 0.34 6.32 0 7 C-0.66 7 -1.32 7 -2 7 C-2.33 5.68 -2.66 4.36 -3 3 C-2.34 3 -1.68 3 -1 3 C-0.67 2.01 -0.34 1.02 0 0 Z " fill="#583680" transform="translate(243,51)"/>
  <path d="M0 0 C0 1.32 0 2.64 0 4 C1.32 4.33 2.64 4.66 4 5 C3 6 3 6 0.625 6.25 C-2 6 -2 6 -3.8125 4.5 C-4.204375 4.005 -4.59625 3.51 -5 3 C-2.25 0 -2.25 0 0 0 Z " fill="#473282" transform="translate(230,59)"/>
  <path d="M0 0 C0.66 0 1.32 0 2 0 C2 0.99 2 1.98 2 3 C2.66 3 3.32 3 4 3 C4 3.66 4 4.32 4 5 C2.02 5.66 0.04 6.32 -2 7 C-2.33 5.68 -2.66 4.36 -3 3 C-2.34 3 -1.68 3 -1 3 C-0.67 2.01 -0.34 1.02 0 0 Z " fill="#513582" transform="translate(188,51)"/>
  <path d="M0 0 C2 2 2 2 2 4 C3.65 4.33 5.3 4.66 7 5 C5 7 5 7 2.4375 7.1875 C0 7 0 7 -1 6 C-1.125 3.5 -1.125 3.5 -1 1 C-0.67 0.67 -0.34 0.34 0 0 Z " fill="#412B7A" transform="translate(155,58)"/>
  <path d="M0 0 C0.66 0 1.32 0 2 0 C2 1.98 2 3.96 2 6 C2.66 6.33 3.32 6.66 4 7 C0.25 8.125 0.25 8.125 -2 7 C-1.125 2.25 -1.125 2.25 0 0 Z " fill="#594185" transform="translate(196,48)"/>
  <path d="M0 0 C0.78375 0.04125 1.5675 0.0825 2.375 0.125 C2.375 0.785 2.375 1.445 2.375 2.125 C1.570625 2.24875 0.76625 2.3725 -0.0625 2.5 C-1.3309375 2.809375 -1.3309375 2.809375 -2.625 3.125 C-2.955 3.785 -3.285 4.445 -3.625 5.125 C-4.615 5.455 -5.605 5.785 -6.625 6.125 C-3.85227273 0.18344156 -3.85227273 0.18344156 0 0 Z " fill="#5A4483" transform="translate(169.625,53.875)"/>
  <path d="M0 0 C1.65 0.33 3.3 0.66 5 1 C4.67 2.65 4.34 4.3 4 6 C3.67 5.01 3.34 4.02 3 3 C1.35 3 -0.3 3 -2 3 C-1.34 2.01 -0.68 1.02 0 0 Z " fill="#4A2D7A" transform="translate(213,48)"/>
  <path d="M0 0 C-0.875 4.75 -0.875 4.75 -2 7 C-2.66 7 -3.32 7 -4 7 C-3.34 5.35 -2.68 3.7 -2 2 C-3.32 1.67 -4.64 1.34 -6 1 C-4 0 -4 0 0 0 Z " fill="#50408B" transform="translate(186,48)"/>
</svg>